<svg width="300" height="400" xmlns="http://www.w3.org/2000/svg">
  <defs>
    <linearGradient id="bookGradient" x1="0%" y1="0%" x2="100%" y2="100%">
      <stop offset="0%" style="stop-color:#4F46E5;stop-opacity:1" />
      <stop offset="100%" style="stop-color:#7C3AED;stop-opacity:1" />
    </linearGradient>
  </defs>
  
  <!-- Book cover background -->
  <rect width="300" height="400" fill="url(#bookGradient)" rx="8"/>
  
  <!-- Book spine -->
  <rect x="0" y="0" width="20" height="400" fill="#1E1B4B" rx="8 0 0 8"/>
  
  <!-- Book pages -->
  <rect x="20" y="20" width="260" height="360" fill="white" rx="0 8 8 0"/>
  
  <!-- Book title area -->
  <rect x="40" y="80" width="220" height="40" fill="#E5E7EB" rx="4"/>
  <rect x="40" y="140" width="180" height="20" fill="#E5E7EB" rx="2"/>
  <rect x="40" y="180" width="160" height="20" fill="#E5E7EB" rx="2"/>
  
  <!-- Book icon -->
  <g transform="translate(130, 250)">
    <rect x="0" y="0" width="40" height="50" fill="#4F46E5" rx="4"/>
    <rect x="5" y="5" width="30" height="40" fill="white" rx="2"/>
    <line x1="10" y1="15" x2="30" y2="15" stroke="#4F46E5" stroke-width="2"/>
    <line x1="10" y1="20" x2="25" y2="20" stroke="#4F46E5" stroke-width="1"/>
    <line x1="10" y1="25" x2="28" y2="25" stroke="#4F46E5" stroke-width="1"/>
    <line x1="10" y1="30" x2="22" y2="30" stroke="#4F46E5" stroke-width="1"/>
  </g>
  
  <!-- Decorative elements -->
  <circle cx="50" cy="50" r="3" fill="white" opacity="0.3"/>
  <circle cx="250" cy="350" r="2" fill="white" opacity="0.3"/>
  <circle cx="270" cy="60" r="2" fill="white" opacity="0.3"/>
</svg>
